# xmcd
#
# Track frame offsets: 
#        150
#        8950
#        25023
#        40639
#        62527
#        77121
#        96776
#        112947
#        128689
#        138933
#        158861
#        165084
#        179922
#        197926
#        215156
#        236080
#        256768
#        271944
#
# Disc length: 3910 seconds
#
# Revision: 1
# Processed by: cddbd v1.5.2PL0 Copyright (c) Steve Scherf et al.
# Submitted via: ExactAudioCopy v0.99pb5
#
DISCID=ec0f4412
DTITLE=Wiki - No Mountains in Manhattan
DYEAR=2017
DGENRE=Hip-Hop
TTITLE0=Islander
TTITLE1=Mayor
TTITLE2=Pretty Bull
TTITLE3=Made for This ft. Ghostface Killah
TTITLE4=Chinatown Swing
TTITLE5=Litt 15 ft. Your Old Droog
TTITLE6=Face It
TTITLE7=Stick Ball
TTITLE8=Elaine
TTITLE9=Pandora's Box ft. Evy Jane
TTITLE10=Wiki New Written
TTITLE11=Jalo
TTITLE12=Nutcrackers ft. Lakutis
TTITLE13=Baby Girl
TTITLE14=NMIM ft. ACAB, Slicky Boy
TTITLE15=Leppy Coqui
TTITLE16=Hands Out ft. Suspect OTB
TTITLE17=Ballin On The Low ft. Antwon
EXTD=
EXTT0=
EXTT1=
EXTT2=
EXTT3=
EXTT4=
EXTT5=
EXTT6=
EXTT7=
EXTT8=
EXTT9=
EXTT10=
EXTT11=
EXTT12=
EXTT13=
EXTT14=
EXTT15=
EXTT16=
EXTT17=
PLAYORDER=
